<svg width="29" height="24" viewBox="0 0 29 24" fill="none" xmlns="http://www.w3.org/2000/svg">
<g filter="url(#filter0_d_1252_136)">
<path d="M6.64463 0.9L6.73919 1.27894L7.30061 3.52874L7.30419 3.54308L7.30691 3.5576L9.40418 14.7366L9.40421 14.7368C9.41279 14.7826 9.43712 14.824 9.47298 14.8538C9.50885 14.8836 9.554 14.9 9.60064 14.9H11.0002H20.8005H22.2001C22.2467 14.9 22.2919 14.8836 22.3278 14.8538C22.3636 14.824 22.3879 14.7826 22.3965 14.7368L22.3965 14.7367L24.4966 3.5368L6.64463 0.9ZM6.64463 0.9H6.25407M6.64463 0.9H6.25407M6.25407 0.9H4.70002C4.64697 0.9 4.59609 0.878925 4.55858 0.841416C4.52107 0.803908 4.5 0.753038 4.5 0.7C4.5 0.646962 4.52107 0.596093 4.55858 0.558584C4.59609 0.521075 4.64697 0.5 4.70002 0.5L6.79995 0.5C6.79997 0.5 6.79999 0.5 6.80002 0.5C6.80004 0.5 6.80006 0.5 6.80009 0.5C6.84466 0.500043 6.88794 0.514971 6.92306 0.542414C6.95822 0.569886 6.98317 0.60832 6.99397 0.651603L6.99402 0.651801L7.56104 2.9212L7.65568 3.3M6.25407 0.9L7.65568 3.3M7.65568 3.3H8.04612M7.65568 3.3H8.04612M8.04612 3.3L24.3002 3.3C24.3002 3.3 24.3003 3.3 24.3003 3.3C24.3297 3.30005 24.3586 3.30655 24.3851 3.31902C24.4117 3.33152 24.4352 3.34972 24.4539 3.37233C24.4727 3.39493 24.4862 3.42138 24.4936 3.44981C24.501 3.47819 24.502 3.50784 24.4966 3.53665L8.04612 3.3ZM13.9494 8.25084L13.9496 8.25099L15.2004 9.50288L18.5512 6.15091L18.5513 6.15084C18.6628 6.03933 18.7952 5.95087 18.9409 5.89053C19.0866 5.83018 19.2428 5.79912 19.4005 5.79912C19.5582 5.79912 19.7143 5.83018 19.86 5.89053C20.0057 5.95087 20.1381 6.03933 20.2496 6.15084C20.3612 6.26235 20.4496 6.39473 20.51 6.54044C20.5703 6.68614 20.6014 6.8423 20.6014 7C20.6014 7.1577 20.5703 7.31386 20.51 7.45956C20.4496 7.60527 20.3612 7.73765 20.2496 7.84916L16.05 12.0487L13.9494 8.25084ZM13.9494 8.25084C13.8379 8.13933 13.7055 8.05087 13.5598 7.99053C13.4141 7.93018 13.258 7.89912 13.1003 7.89912C12.9426 7.89912 12.7864 7.93018 12.6407 7.99053C12.495 8.05087 12.3626 8.13933 12.2511 8.25084C12.1396 8.36235 12.0511 8.49474 11.9908 8.64044C11.9304 8.78613 11.8994 8.94229 11.8994 9.1C11.8994 9.2577 11.9304 9.41386 11.9908 9.55956C12.0511 9.70527 12.1396 9.83765 12.2511 9.94916L14.3507 12.0487L13.9494 8.25084ZM6.81549 3.6498L8.91275 14.8288C8.94278 14.9892 9.02791 15.1341 9.15343 15.2384C9.20943 15.2849 9.27188 15.3221 9.33838 15.3489L6.81549 3.6498ZM9.3738 16.5737C9.80515 16.1423 10.3902 15.9 11.0002 15.9C11.6102 15.9 12.1953 16.1423 12.6266 16.5737C13.058 17.005 13.3003 17.59 13.3003 18.2C13.3003 18.81 13.058 19.395 12.6266 19.8263C12.1953 20.2577 11.6102 20.5 11.0002 20.5C10.3902 20.5 9.80515 20.2577 9.3738 19.8263C8.94246 19.395 8.70013 18.81 8.70013 18.2C8.70013 17.59 8.94246 17.005 9.3738 16.5737ZM19.1741 16.5737C19.6055 16.1423 20.1905 15.9 20.8005 15.9C21.4105 15.9 21.9956 16.1423 22.4269 16.5737C22.8583 17.005 23.1006 17.59 23.1006 18.2C23.1006 18.81 22.8583 19.395 22.4269 19.8263C21.9956 20.2577 21.4105 20.5 20.8005 20.5C20.1905 20.5 19.6055 20.2577 19.1741 19.8263C18.7428 19.395 18.5004 18.81 18.5004 18.2C18.5004 17.59 18.7428 17.005 19.1741 16.5737ZM12.3437 19.5435C12.7001 19.1872 12.9003 18.7039 12.9003 18.2C12.9003 17.6961 12.7001 17.2128 12.3437 16.8565C11.9874 16.5002 11.5041 16.3 11.0002 16.3C10.4963 16.3 10.013 16.5002 9.65669 16.8565C9.30036 17.2128 9.10017 17.6961 9.10017 18.2C9.10017 18.7039 9.30036 19.1872 9.65669 19.5435C10.013 19.8998 10.4963 20.1 11.0002 20.1C11.5041 20.1 11.9874 19.8998 12.3437 19.5435ZM22.144 19.5435C22.5004 19.1872 22.7006 18.7039 22.7006 18.2C22.7006 17.6961 22.5004 17.2128 22.144 16.8565C21.7877 16.5002 21.3044 16.3 20.8005 16.3C20.2966 16.3 19.8133 16.5002 19.457 16.8565C19.1007 17.2128 18.9005 17.6961 18.9005 18.2C18.9005 18.7039 19.1007 19.1872 19.457 19.5435C19.8133 19.8998 20.2966 20.1 20.8005 20.1C21.3044 20.1 21.7877 19.8998 22.144 19.5435ZM15.6603 12.3096C15.8059 12.2492 15.9381 12.1607 16.0495 12.0492H14.3512C14.4626 12.1607 14.5948 12.2492 14.7404 12.3096C14.8862 12.3701 15.0425 12.4013 15.2003 12.4013C15.3582 12.4013 15.5145 12.3701 15.6603 12.3096Z" stroke="white" shape-rendering="crispEdges"/>
</g>
<defs>
<filter id="filter0_d_1252_136" x="0" y="0" width="29" height="29" filterUnits="userSpaceOnUse" color-interpolation-filters="sRGB">
<feFlood flood-opacity="0" result="BackgroundImageFix"/>
<feColorMatrix in="SourceAlpha" type="matrix" values="0 0 0 0 0 0 0 0 0 0 0 0 0 0 0 0 0 0 127 0" result="hardAlpha"/>
<feOffset dy="4"/>
<feGaussianBlur stdDeviation="2"/>
<feComposite in2="hardAlpha" operator="out"/>
<feColorMatrix type="matrix" values="0 0 0 0 0 0 0 0 0 0 0 0 0 0 0 0 0 0 0.25 0"/>
<feBlend mode="normal" in2="BackgroundImageFix" result="effect1_dropShadow_1252_136"/>
<feBlend mode="normal" in="SourceGraphic" in2="effect1_dropShadow_1252_136" result="shape"/>
</filter>
</defs>
</svg>
