<svg width="53" height="52" viewBox="0 0 53 52" fill="none" xmlns="http://www.w3.org/2000/svg">
<g filter="url(#filter0_d_1411_188)">
<path d="M26.5 0C14.0687 0 4 10.0687 4 22.5C4 32.4562 10.4406 40.8656 19.3844 43.8469C20.5094 44.0438 20.9312 43.3688 20.9312 42.7781C20.9312 42.2438 20.9031 40.4719 20.9031 38.5875C15.25 39.6281 13.7875 37.2094 13.3375 35.9437C13.0844 35.2969 11.9875 33.3 11.0312 32.7656C10.2437 32.3437 9.11875 31.3031 11.0031 31.275C12.775 31.2469 14.0406 32.9062 14.4625 33.5812C16.4875 36.9844 19.7219 36.0281 21.0156 35.4375C21.2125 33.975 21.8031 32.9906 22.45 32.4281C17.4437 31.8656 12.2125 29.925 12.2125 21.3187C12.2125 18.8719 13.0844 16.8469 14.5188 15.2719C14.2938 14.7094 13.5062 12.4031 14.7437 9.30937C14.7437 9.30937 16.6281 8.71875 20.9312 11.6156C22.7312 11.1094 24.6438 10.8562 26.5563 10.8562C28.4688 10.8562 30.3813 11.1094 32.1813 11.6156C36.4844 8.69063 38.3688 9.30937 38.3688 9.30937C39.6063 12.4031 38.8188 14.7094 38.5938 15.2719C40.0281 16.8469 40.9 18.8437 40.9 21.3187C40.9 29.9531 35.6406 31.8656 30.6344 32.4281C31.45 33.1312 32.1531 34.4813 32.1531 36.5906C32.1531 39.6 32.125 42.0188 32.125 42.7781C32.125 43.3688 32.5469 44.0719 33.6719 43.8469C38.1388 42.3393 42.0203 39.4688 44.7701 35.6393C47.5198 31.8099 48.9992 27.2144 49 22.5C49 10.0687 38.9313 0 26.5 0Z" fill="white"/>
</g>
<defs>
<filter id="filter0_d_1411_188" x="0" y="0" width="53" height="53" filterUnits="userSpaceOnUse" color-interpolation-filters="sRGB">
<feFlood flood-opacity="0" result="BackgroundImageFix"/>
<feColorMatrix in="SourceAlpha" type="matrix" values="0 0 0 0 0 0 0 0 0 0 0 0 0 0 0 0 0 0 127 0" result="hardAlpha"/>
<feOffset dy="4"/>
<feGaussianBlur stdDeviation="2"/>
<feComposite in2="hardAlpha" operator="out"/>
<feColorMatrix type="matrix" values="0 0 0 0 0 0 0 0 0 0 0 0 0 0 0 0 0 0 0.25 0"/>
<feBlend mode="normal" in2="BackgroundImageFix" result="effect1_dropShadow_1411_188"/>
<feBlend mode="normal" in="SourceGraphic" in2="effect1_dropShadow_1411_188" result="shape"/>
</filter>
</defs>
</svg>
