<svg width="54" height="50" viewBox="0 0 54 50" fill="none" xmlns="http://www.w3.org/2000/svg">
<g clip-path="url(#clip0_1457_505)" filter="url(#filter0_d_1457_505)">
<path fill-rule="evenodd" clip-rule="evenodd" d="M6.25 39.0625C6.25 38.6481 6.93592 38.2507 8.15686 37.9576C9.3778 37.6646 11.0337 37.5 12.7604 37.5H155.99C157.716 37.5 159.372 37.6646 160.593 37.9576C161.814 38.2507 162.5 38.6481 162.5 39.0625C162.5 39.4769 161.814 39.8743 160.593 40.1674C159.372 40.4604 157.716 40.625 155.99 40.625H12.7604C11.0337 40.625 9.3778 40.4604 8.15686 40.1674C6.93592 39.8743 6.25 39.4769 6.25 39.0625ZM6.25 29.6875C6.25 29.2731 6.93592 28.8757 8.15686 28.5826C9.3778 28.2896 11.0337 28.125 12.7604 28.125H155.99C157.716 28.125 159.372 28.2896 160.593 28.5826C161.814 28.8757 162.5 29.2731 162.5 29.6875C162.5 30.1019 161.814 30.4993 160.593 30.7924C159.372 31.0854 157.716 31.25 155.99 31.25H12.7604C11.0337 31.25 9.3778 31.0854 8.15686 30.7924C6.93592 30.4993 6.25 30.1019 6.25 29.6875ZM6.25 20.3125C6.25 19.8981 6.93592 19.5007 8.15686 19.2076C9.3778 18.9146 11.0337 18.75 12.7604 18.75H155.99C157.716 18.75 159.372 18.9146 160.593 19.2076C161.814 19.5007 162.5 19.8981 162.5 20.3125C162.5 20.7269 161.814 21.1243 160.593 21.4174C159.372 21.7104 157.716 21.875 155.99 21.875H12.7604C11.0337 21.875 9.3778 21.7104 8.15686 21.4174C6.93592 21.1243 6.25 20.7269 6.25 20.3125ZM6.25 10.9375C6.25 10.5231 6.93592 10.1257 8.15686 9.83265C9.3778 9.53962 11.0337 9.375 12.7604 9.375H155.99C157.716 9.375 159.372 9.53962 160.593 9.83265C161.814 10.1257 162.5 10.5231 162.5 10.9375C162.5 11.3519 161.814 11.7493 160.593 12.0424C159.372 12.3354 157.716 12.5 155.99 12.5H12.7604C11.0337 12.5 9.3778 12.3354 8.15686 12.0424C6.93592 11.7493 6.25 11.3519 6.25 10.9375Z" fill="white"/>
</g>
<defs>
<filter id="filter0_d_1457_505" x="-4" y="0" width="58" height="58" filterUnits="userSpaceOnUse" color-interpolation-filters="sRGB">
<feFlood flood-opacity="0" result="BackgroundImageFix"/>
<feColorMatrix in="SourceAlpha" type="matrix" values="0 0 0 0 0 0 0 0 0 0 0 0 0 0 0 0 0 0 127 0" result="hardAlpha"/>
<feOffset dy="4"/>
<feGaussianBlur stdDeviation="2"/>
<feComposite in2="hardAlpha" operator="out"/>
<feColorMatrix type="matrix" values="0 0 0 0 0 0 0 0 0 0 0 0 0 0 0 0 0 0 0.25 0"/>
<feBlend mode="normal" in2="BackgroundImageFix" result="effect1_dropShadow_1457_505"/>
<feBlend mode="normal" in="SourceGraphic" in2="effect1_dropShadow_1457_505" result="shape"/>
</filter>
<clipPath id="clip0_1457_505">
<rect width="50" height="50" fill="white"/>
</clipPath>
</defs>
</svg>
