<svg width="35" height="33" viewBox="0 0 35 33" fill="none" xmlns="http://www.w3.org/2000/svg">
<g filter="url(#filter0_d_188_128)">
<path d="M4.8789 0C4.6458 0 4.42225 0.0873405 4.25742 0.242808C4.0926 0.398275 4 0.609134 4 0.828997C4 1.04886 4.0926 1.25972 4.25742 1.41519C4.42225 1.57065 4.6458 1.65799 4.8789 1.65799H6.83006L7.53494 4.32239L10.1681 17.5615C10.2058 17.7514 10.3127 17.923 10.4703 18.0465C10.6279 18.1701 10.8263 18.2378 11.0312 18.2379H12.789C11.8566 18.2379 10.9624 18.5873 10.3031 19.2092C9.6438 19.831 9.2734 20.6745 9.2734 21.5539C9.2734 22.4334 9.6438 23.2768 10.3031 23.8987C10.9624 24.5206 11.8566 24.8699 12.789 24.8699C13.7214 24.8699 14.6156 24.5206 15.2749 23.8987C15.9342 23.2768 16.3046 22.4334 16.3046 21.5539C16.3046 20.6745 15.9342 19.831 15.2749 19.2092C14.6156 18.5873 13.7214 18.2379 12.789 18.2379H25.0936C24.1612 18.2379 23.267 18.5873 22.6077 19.2092C21.9484 19.831 21.578 20.6745 21.578 21.5539C21.578 22.4334 21.9484 23.2768 22.6077 23.8987C23.267 24.5206 24.1612 24.8699 25.0936 24.8699C26.026 24.8699 26.9202 24.5206 27.5795 23.8987C28.2388 23.2768 28.6092 22.4334 28.6092 21.5539C28.6092 20.6745 28.2388 19.831 27.5795 19.2092C26.9202 18.5873 26.026 18.2379 25.0936 18.2379H26.8514C27.0563 18.2378 27.2547 18.1701 27.4123 18.0465C27.5699 17.923 27.6768 17.7514 27.7145 17.5615L30.3512 4.29752C30.3749 4.17788 30.3705 4.05477 30.3381 3.93694C30.3057 3.81911 30.2462 3.70945 30.1638 3.61576C30.0814 3.52207 29.9782 3.44664 29.8614 3.39483C29.7446 3.34302 29.6172 3.3161 29.4881 3.31599H9.08004L8.36813 0.62838C8.32069 0.448958 8.21101 0.28965 8.05653 0.175788C7.90205 0.0619272 7.71165 5.10853e-05 7.5156 0H4.8789ZM14.5468 21.5539C14.5468 21.9937 14.3616 22.4154 14.032 22.7263C13.7023 23.0372 13.2552 23.2119 12.789 23.2119C12.3228 23.2119 11.8757 23.0372 11.5461 22.7263C11.2164 22.4154 11.0312 21.9937 11.0312 21.5539C11.0312 21.1142 11.2164 20.6925 11.5461 20.3815C11.8757 20.0706 12.3228 19.8959 12.789 19.8959C13.2552 19.8959 13.7023 20.0706 14.032 20.3815C14.3616 20.6925 14.5468 21.1142 14.5468 21.5539ZM26.8514 21.5539C26.8514 21.9937 26.6662 22.4154 26.3366 22.7263C26.0069 23.0372 25.5598 23.2119 25.0936 23.2119C24.6274 23.2119 24.1803 23.0372 23.8507 22.7263C23.521 22.4154 23.3358 21.9937 23.3358 21.5539C23.3358 21.1142 23.521 20.6925 23.8507 20.3815C24.1803 20.0706 24.6274 19.8959 25.0936 19.8959C25.5598 19.8959 26.0069 20.0706 26.3366 20.3815C26.6662 20.6925 26.8514 21.1142 26.8514 21.5539ZM23.9581 8.8769L18.6847 13.8509C18.603 13.9281 18.506 13.9893 18.3993 14.0311C18.2925 14.0729 18.178 14.0944 18.0624 14.0944C17.9468 14.0944 17.8323 14.0729 17.7256 14.0311C17.6188 13.9893 17.5218 13.9281 17.4401 13.8509L14.8034 11.3639C14.7217 11.2868 14.6569 11.1953 14.6127 11.0946C14.5685 10.9939 14.5457 10.886 14.5457 10.777C14.5457 10.668 14.5685 10.56 14.6127 10.4593C14.6569 10.3586 14.7217 10.2671 14.8034 10.19C14.8852 10.113 14.9822 10.0518 15.0889 10.0101C15.1957 9.96839 15.3101 9.94692 15.4257 9.94692C15.5413 9.94692 15.6557 9.96839 15.7625 10.0101C15.8692 10.0518 15.9663 10.113 16.048 10.19L18.0624 12.0918L22.7135 7.70304C22.7953 7.62597 22.8923 7.56483 22.999 7.52311C23.1058 7.4814 23.2202 7.45993 23.3358 7.45993C23.4514 7.45993 23.5658 7.4814 23.6726 7.52311C23.7793 7.56483 23.8764 7.62597 23.9581 7.70304C24.0398 7.78012 24.1046 7.87162 24.1488 7.97233C24.1931 8.07303 24.2158 8.18097 24.2158 8.28997C24.2158 8.39898 24.1931 8.50691 24.1488 8.60762C24.1046 8.70832 24.0398 8.79983 23.9581 8.8769Z" fill="#EA1E1E"/>
<path d="M16.391 9.82631L16.3912 9.82646L18.0625 11.4042L22.3704 7.33938L22.3705 7.33931C22.4998 7.21731 22.6518 7.12197 22.8171 7.05739C22.9823 6.99284 23.1585 6.95993 23.3358 6.95993C23.5131 6.95993 23.6893 6.99283 23.8545 7.05739C24.0198 7.12197 24.1718 7.21731 24.3011 7.33931C24.4306 7.46137 24.5349 7.60788 24.6066 7.77129C24.6784 7.93478 24.7158 8.11112 24.7158 8.28997C24.7158 8.46883 24.6784 8.64517 24.6066 8.80866C24.5349 8.97207 24.4306 9.11857 24.3011 9.24063L19.0282 14.2142L16.391 9.82631ZM16.391 9.82631C16.2617 9.7043 16.1097 9.60896 15.9444 9.54439C15.7792 9.47983 15.603 9.44692 15.4257 9.44692C15.2484 9.44692 15.0722 9.47983 14.907 9.54439C14.7417 9.60896 14.5897 9.7043 14.4604 9.82631C14.331 9.94837 14.2266 10.0949 14.1549 10.2583C14.0831 10.4218 14.0457 10.5981 14.0457 10.777C14.0457 10.9558 14.0831 11.1322 14.1549 11.2957C14.2266 11.4591 14.331 11.6056 14.4604 11.7276L17.0966 14.2142L16.391 9.82631ZM7.31343 1.53012L7.21498 1.15799H6.83006H4.8789C4.76929 1.15799 4.66962 1.11665 4.6005 1.05146C4.53238 0.987202 4.5 0.906509 4.5 0.828997C4.5 0.751486 4.53238 0.670793 4.6005 0.606536C4.66962 0.541345 4.76929 0.5 4.8789 0.5L7.51547 0.5C7.5155 0.5 7.51553 0.5 7.51556 0.5C7.51557 0.5 7.51559 0.5 7.5156 0.5C7.60736 0.500051 7.6933 0.529205 7.75987 0.578272C7.82601 0.62702 7.86749 0.690927 7.88475 0.756201L7.8848 0.756407L8.59671 3.44402L8.69524 3.81599H9.08004L29.4877 3.81599C29.4877 3.81599 29.4878 3.81599 29.4879 3.81599C29.5479 3.81607 29.6063 3.82865 29.6586 3.85187C29.711 3.87509 29.7548 3.90784 29.7883 3.94593C29.8217 3.98391 29.8441 4.02631 29.856 4.06945C29.8678 4.11249 29.8693 4.15691 29.8608 4.20018L27.2241 17.464L27.2241 17.4641C27.2105 17.5325 27.1708 17.6005 27.1039 17.653C27.0364 17.7059 26.947 17.7379 26.851 17.7379H25.0936H12.789H11.0316C10.9356 17.7379 10.8463 17.7059 10.7787 17.653C10.7118 17.6005 10.6721 17.5325 10.6586 17.4641L10.6585 17.4639L8.02533 4.22485L8.02229 4.20958L8.01831 4.19451L7.31343 1.53012ZM10.6462 19.5729C11.2098 19.0413 11.9801 18.7379 12.789 18.7379C13.5979 18.7379 14.3682 19.0413 14.9318 19.5729C15.4944 20.1036 15.8046 20.8168 15.8046 21.5539C15.8046 22.291 15.4944 23.0043 14.9318 23.535C14.3682 24.0666 13.5979 24.3699 12.789 24.3699C11.9801 24.3699 11.2098 24.0666 10.6462 23.535C10.0836 23.0043 9.7734 22.291 9.7734 21.5539C9.7734 20.8168 10.0836 20.1036 10.6462 19.5729ZM22.9508 19.5729C23.5144 19.0413 24.2847 18.7379 25.0936 18.7379C25.9025 18.7379 26.6728 19.0413 27.2364 19.5729C27.799 20.1036 28.1092 20.8168 28.1092 21.5539C28.1092 22.291 27.799 23.0043 27.2364 23.535C26.6728 24.0666 25.9025 24.3699 25.0936 24.3699C24.2847 24.3699 23.5144 24.0666 22.9508 23.535C22.3882 23.0043 22.078 22.291 22.078 21.5539C22.078 20.8168 22.3882 20.1036 22.9508 19.5729ZM14.375 23.09C14.8014 22.6879 15.0468 22.136 15.0468 21.5539C15.0468 20.9718 14.8014 20.42 14.375 20.0178C13.9497 19.6166 13.3787 19.3959 12.789 19.3959C12.1993 19.3959 11.6283 19.6166 11.203 20.0178C10.7766 20.42 10.5312 20.9719 10.5312 21.5539C10.5312 22.136 10.7766 22.6879 11.203 23.09C11.6283 23.4912 12.1993 23.7119 12.789 23.7119C13.3787 23.7119 13.9497 23.4912 14.375 23.09ZM26.6796 23.09C27.106 22.6879 27.3514 22.136 27.3514 21.5539C27.3514 20.9718 27.106 20.42 26.6796 20.0178C26.2543 19.6166 25.6833 19.3959 25.0936 19.3959C24.5039 19.3959 23.9329 19.6166 23.5076 20.0178C23.0812 20.42 22.8358 20.9719 22.8358 21.5539C22.8358 22.136 23.0812 22.6879 23.5076 23.09C23.9329 23.4912 24.5039 23.7119 25.0936 23.7119C25.6833 23.7119 26.2543 23.4912 26.6796 23.09ZM18.5815 14.4967C18.7467 14.4321 18.8985 14.3367 19.0277 14.2146H17.0971C17.2263 14.3367 17.3781 14.4321 17.5433 14.4967C17.7086 14.5614 17.885 14.5944 18.0624 14.5944C18.2399 14.5944 18.4162 14.5614 18.5815 14.4967Z" stroke="#D00B0B"/>
</g>
<defs>
<filter id="filter0_d_188_128" x="0" y="0" width="34.3662" height="32.8701" filterUnits="userSpaceOnUse" color-interpolation-filters="sRGB">
<feFlood flood-opacity="0" result="BackgroundImageFix"/>
<feColorMatrix in="SourceAlpha" type="matrix" values="0 0 0 0 0 0 0 0 0 0 0 0 0 0 0 0 0 0 127 0" result="hardAlpha"/>
<feOffset dy="4"/>
<feGaussianBlur stdDeviation="2"/>
<feComposite in2="hardAlpha" operator="out"/>
<feColorMatrix type="matrix" values="0 0 0 0 0 0 0 0 0 0 0 0 0 0 0 0 0 0 0.25 0"/>
<feBlend mode="normal" in2="BackgroundImageFix" result="effect1_dropShadow_188_128"/>
<feBlend mode="normal" in="SourceGraphic" in2="effect1_dropShadow_188_128" result="shape"/>
</filter>
</defs>
</svg>
