<svg width="45" height="45" viewBox="0 0 45 45" fill="none" xmlns="http://www.w3.org/2000/svg">
<path d="M14.1356 42.1875C31.1175 42.1875 40.4072 28.1166 40.4072 15.9356C40.4072 15.5419 40.4072 15.1425 40.3903 14.7487C42.1989 13.4395 43.7599 11.8185 45 9.96187C43.3106 10.7068 41.5203 11.1977 39.6872 11.4187C41.6181 10.2646 43.0642 8.44866 43.7569 6.30843C41.9428 7.38316 39.9572 8.13761 37.8872 8.53875C36.4955 7.05663 34.6539 6.07476 32.6477 5.74525C30.6415 5.41574 28.5827 5.75696 26.79 6.71607C24.9974 7.67518 23.571 9.19864 22.7319 11.0505C21.8928 12.9023 21.6877 14.9792 22.1484 16.9594C18.4774 16.7753 14.886 15.8216 11.6073 14.1602C8.32857 12.4988 5.43567 10.1667 3.11625 7.31531C1.93877 9.34898 1.57943 11.7546 2.11119 14.0436C2.64296 16.3326 4.02597 18.3334 5.97937 19.6397C4.51558 19.59 3.08396 19.1969 1.8 18.4922V18.6187C1.80252 20.7492 2.54055 22.8134 3.88933 24.4624C5.23811 26.1115 7.11492 27.2443 9.2025 27.6694C8.41011 27.8877 7.59158 27.9965 6.76969 27.9928C6.19027 27.9946 5.61201 27.9409 5.04281 27.8325C5.63284 29.6664 6.78171 31.2698 8.32851 32.4182C9.87531 33.5666 11.7426 34.2024 13.6688 34.2366C10.3966 36.8066 6.35457 38.2005 2.19375 38.1937C1.46059 38.1968 0.72794 38.1546 0 38.0672C4.22301 40.7595 9.1274 42.189 14.1356 42.1875V42.1875Z" fill="#00ACEE"/>
</svg>
