<svg width="12" height="12" viewBox="0 0 12 12" fill="none" xmlns="http://www.w3.org/2000/svg">
<g clip-path="url(#clip0_193_7)">
<path d="M6 11.25C4.60761 11.25 3.27226 10.6969 2.28769 9.71231C1.30312 8.72775 0.75 7.39239 0.75 6C0.75 4.60761 1.30312 3.27226 2.28769 2.28769C3.27226 1.30312 4.60761 0.75 6 0.75C7.39239 0.75 8.72775 1.30312 9.71231 2.28769C10.6969 3.27226 11.25 4.60761 11.25 6C11.25 7.39239 10.6969 8.72775 9.71231 9.71231C8.72775 10.6969 7.39239 11.25 6 11.25ZM6 12C7.5913 12 9.11742 11.3679 10.2426 10.2426C11.3679 9.11742 12 7.5913 12 6C12 4.4087 11.3679 2.88258 10.2426 1.75736C9.11742 0.632141 7.5913 0 6 0C4.4087 0 2.88258 0.632141 1.75736 1.75736C0.632141 2.88258 0 4.4087 0 6C0 7.5913 0.632141 9.11742 1.75736 10.2426C2.88258 11.3679 4.4087 12 6 12Z" fill="#EC0303"/>
<path d="M5.25153 8.24984C5.25153 8.15135 5.27093 8.05383 5.30862 7.96283C5.34631 7.87184 5.40155 7.78916 5.4712 7.71951C5.54084 7.64987 5.62352 7.59462 5.71451 7.55693C5.80551 7.51924 5.90303 7.49984 6.00153 7.49984C6.10002 7.49984 6.19754 7.51924 6.28854 7.55693C6.37953 7.59462 6.46221 7.64987 6.53186 7.71951C6.6015 7.78916 6.65674 7.87184 6.69444 7.96283C6.73213 8.05383 6.75153 8.15135 6.75153 8.24984C6.75153 8.44876 6.67251 8.63952 6.53186 8.78017C6.3912 8.92083 6.20044 8.99984 6.00153 8.99984C5.80261 8.99984 5.61185 8.92083 5.4712 8.78017C5.33054 8.63952 5.25153 8.44876 5.25153 8.24984ZM5.32503 3.74609C5.31504 3.65147 5.32506 3.55581 5.35443 3.46531C5.3838 3.37482 5.43187 3.2915 5.49551 3.22078C5.55916 3.15006 5.63697 3.09351 5.72388 3.05481C5.8108 3.0161 5.90488 2.99609 6.00003 2.99609C6.09517 2.99609 6.18925 3.0161 6.27617 3.05481C6.36308 3.09351 6.44089 3.15006 6.50454 3.22078C6.56819 3.2915 6.61625 3.37482 6.64563 3.46531C6.675 3.55581 6.68501 3.65147 6.67503 3.74609L6.41253 6.37634C6.40371 6.47967 6.35643 6.57593 6.28004 6.64607C6.20366 6.71621 6.10373 6.75513 6.00003 6.75513C5.89632 6.75513 5.79639 6.71621 5.72001 6.64607C5.64362 6.57593 5.59635 6.47967 5.58753 6.37634L5.32503 3.74609Z" fill="#E61414"/>
</g>
<defs>
<clipPath id="clip0_193_7">
<rect width="12" height="12" fill="white"/>
</clipPath>
</defs>
</svg>
