<svg width="34" height="31" viewBox="0 0 34 31" fill="none" xmlns="http://www.w3.org/2000/svg">
<g filter="url(#filter0_d_66_5)">
<path d="M4.86669 0C4.63683 0 4.41639 0.0807735 4.25385 0.224551C4.09131 0.368329 4 0.563334 4 0.766667C4 0.969999 4.09131 1.165 4.25385 1.30878C4.41639 1.45256 4.63683 1.53333 4.86669 1.53333H6.79075L7.48584 3.9974L10.0825 16.2411C10.1196 16.4168 10.225 16.5754 10.3804 16.6897C10.5358 16.8039 10.7315 16.8665 10.9335 16.8667H12.6669C11.7475 16.8667 10.8657 17.1898 10.2156 17.7649C9.56541 18.34 9.20016 19.12 9.20016 19.9333C9.20016 20.7467 9.56541 21.5267 10.2156 22.1018C10.8657 22.6769 11.7475 23 12.6669 23C13.5864 23 14.4682 22.6769 15.1183 22.1018C15.7685 21.5267 16.1337 20.7467 16.1337 19.9333C16.1337 19.12 15.7685 18.34 15.1183 17.7649C14.4682 17.1898 13.5864 16.8667 12.6669 16.8667H24.8006C23.8812 16.8667 22.9994 17.1898 22.3493 17.7649C21.6991 18.34 21.3339 19.12 21.3339 19.9333C21.3339 20.7467 21.6991 21.5267 22.3493 22.1018C22.9994 22.6769 23.8812 23 24.8006 23C25.7201 23 26.6019 22.6769 27.252 22.1018C27.9022 21.5267 28.2674 20.7467 28.2674 19.9333C28.2674 19.12 27.9022 18.34 27.252 17.7649C26.6019 17.1898 25.7201 16.8667 24.8006 16.8667H26.534C26.7361 16.8665 26.9317 16.8039 27.0871 16.6897C27.2425 16.5754 27.3479 16.4168 27.3851 16.2411L29.9852 3.9744C30.0086 3.86375 30.0042 3.7499 29.9723 3.64093C29.9403 3.53196 29.8817 3.43055 29.8004 3.3439C29.7192 3.25725 29.6174 3.18749 29.5022 3.13958C29.387 3.09166 29.2614 3.06677 29.1341 3.06667H9.00949L8.30747 0.581133C8.26068 0.415202 8.15252 0.267871 8.00019 0.162571C7.84786 0.057271 7.6601 4.72443e-05 7.46677 0H4.86669ZM14.4003 19.9333C14.4003 20.34 14.2177 20.73 13.8926 21.0176C13.5676 21.3051 13.1267 21.4667 12.6669 21.4667C12.2072 21.4667 11.7663 21.3051 11.4412 21.0176C11.1162 20.73 10.9335 20.34 10.9335 19.9333C10.9335 19.5267 11.1162 19.1367 11.4412 18.8491C11.7663 18.5615 12.2072 18.4 12.6669 18.4C13.1267 18.4 13.5676 18.5615 13.8926 18.8491C14.2177 19.1367 14.4003 19.5267 14.4003 19.9333ZM26.534 19.9333C26.534 20.34 26.3514 20.73 26.0263 21.0176C25.7013 21.3051 25.2604 21.4667 24.8006 21.4667C24.3409 21.4667 23.9 21.3051 23.575 21.0176C23.2499 20.73 23.0673 20.34 23.0673 19.9333C23.0673 19.5267 23.2499 19.1367 23.575 18.8491C23.9 18.5615 24.3409 18.4 24.8006 18.4C25.2604 18.4 25.7013 18.5615 26.0263 18.8491C26.3514 19.1367 26.534 19.5267 26.534 19.9333ZM23.6809 8.20947L18.4807 12.8095C18.4002 12.8809 18.3046 12.9375 18.1993 12.9762C18.094 13.0148 17.9811 13.0347 17.8671 13.0347C17.7531 13.0347 17.6402 13.0148 17.5349 12.9762C17.4296 12.9375 17.334 12.8809 17.2535 12.8095L14.6534 10.5095C14.5728 10.4382 14.5089 10.3536 14.4653 10.2604C14.4217 10.1673 14.3992 10.0675 14.3992 9.96667C14.3992 9.86586 14.4217 9.76604 14.4653 9.6729C14.5089 9.57977 14.5728 9.49515 14.6534 9.42387C14.734 9.35258 14.8296 9.29604 14.9349 9.25746C15.0402 9.21889 15.1531 9.19903 15.267 9.19903C15.381 9.19903 15.4938 9.21889 15.5991 9.25746C15.7044 9.29604 15.8001 9.35258 15.8806 9.42387L17.8671 11.1826L22.4536 7.12387C22.5342 7.05259 22.6299 6.99604 22.7352 6.95746C22.8405 6.91889 22.9533 6.89903 23.0673 6.89903C23.1812 6.89903 23.2941 6.91889 23.3993 6.95746C23.5046 6.99604 23.6003 7.05259 23.6809 7.12387C23.7615 7.19515 23.8254 7.27977 23.869 7.3729C23.9126 7.46604 23.935 7.56586 23.935 7.66667C23.935 7.76747 23.9126 7.86729 23.869 7.96043C23.8254 8.05356 23.7615 8.13819 23.6809 8.20947Z" fill="#ED6C24"/>
<path d="M7.27197 1.39759L7.16922 1.03333H6.79075H4.86669C4.75099 1.03333 4.65052 0.992121 4.58513 0.934278C4.52173 0.878192 4.5 0.816223 4.5 0.766667C4.5 0.717111 4.52173 0.655141 4.58513 0.599055C4.65052 0.541212 4.75099 0.5 4.86669 0.5L7.46665 0.5C7.46668 0.5 7.46671 0.5 7.46674 0.5C7.46675 0.5 7.46676 0.5 7.46677 0.5C7.56325 0.500048 7.65091 0.528961 7.71588 0.57387C7.78014 0.618288 7.81345 0.671493 7.82623 0.71682L7.82629 0.717038L8.52831 3.20257L8.63115 3.56667H9.00949L29.1337 3.56667C29.1338 3.56667 29.1339 3.56667 29.1339 3.56667C29.1967 3.56675 29.257 3.57912 29.3101 3.60121C29.3632 3.62332 29.4053 3.65348 29.4357 3.68589C29.4658 3.71807 29.4836 3.75128 29.4924 3.78155C29.5012 3.8115 29.5023 3.84148 29.496 3.87088L26.896 16.1374L26.896 16.1376C26.8862 16.1838 26.8555 16.2394 26.791 16.2868C26.7256 16.3349 26.6347 16.3666 26.5336 16.3667H24.8006H12.6669H10.934C10.8329 16.3666 10.742 16.3349 10.6766 16.2868C10.6121 16.2394 10.5814 16.1838 10.5716 16.1375L10.5716 16.1373L7.97496 3.89367L7.97154 3.87753L7.96706 3.86165L7.27197 1.39759ZM16.2121 9.04951L16.2119 9.04936C16.0827 8.93504 15.9324 8.84709 15.7711 8.78799C15.6098 8.72888 15.4387 8.69903 15.267 8.69903C15.0953 8.69903 14.9242 8.72888 14.7629 8.78799C14.6016 8.84709 14.4514 8.93504 14.3221 9.04936C14.1928 9.16379 14.0864 9.30299 14.0125 9.46087C13.9384 9.61899 13.8992 9.79107 13.8992 9.96667C13.8992 10.1423 13.9384 10.3143 14.0125 10.4725C14.0864 10.6303 14.1928 10.7695 14.3221 10.884L16.9217 13.1836C16.9219 13.1837 16.922 13.1838 16.9221 13.1839C16.9221 13.1839 16.9222 13.1839 16.9222 13.184C17.0513 13.2984 17.2014 13.3864 17.3626 13.4455C17.524 13.5048 17.6953 13.5347 17.8671 13.5347C18.0389 13.5347 18.2102 13.5048 18.3716 13.4455C18.5328 13.3864 18.6829 13.2984 18.812 13.184C18.812 13.1839 18.812 13.1839 18.8121 13.1839C18.8122 13.1838 18.8123 13.1837 18.8125 13.1836L24.0122 8.58397C24.1415 8.46954 24.2479 8.33034 24.3218 8.17246C24.3958 8.01434 24.435 7.84226 24.435 7.66667C24.435 7.49107 24.3958 7.31899 24.3218 7.16087C24.2479 7.00299 24.1415 6.86379 24.0122 6.74936C23.8829 6.63504 23.7327 6.54709 23.5714 6.48799C23.4101 6.42889 23.2389 6.39903 23.0673 6.39903C22.8956 6.39903 22.7244 6.42889 22.5631 6.48799C22.4018 6.54709 22.2516 6.63504 22.1224 6.74936L22.1223 6.74943L17.8672 10.5149L16.2121 9.04951ZM10.5468 18.1394C11.0998 17.6502 11.8616 17.3667 12.6669 17.3667C13.4722 17.3667 14.234 17.6502 14.787 18.1394C15.338 18.6268 15.6337 19.2738 15.6337 19.9333C15.6337 20.5929 15.338 21.2399 14.787 21.7273C14.234 22.2165 13.4722 22.5 12.6669 22.5C11.8616 22.5 11.0998 22.2165 10.5468 21.7273C9.99582 21.2399 9.70016 20.5929 9.70016 19.9333C9.70016 19.2738 9.99582 18.6268 10.5468 18.1394ZM22.6805 18.1394C23.2335 17.6502 23.9954 17.3667 24.8006 17.3667C25.6059 17.3667 26.3677 17.6502 26.9207 18.1394C27.4718 18.6268 27.7674 19.2738 27.7674 19.9333C27.7674 20.5929 27.4718 21.2399 26.9207 21.7273C26.3677 22.2165 25.6059 22.5 24.8006 22.5C23.9954 22.5 23.2335 22.2165 22.6805 21.7273C22.1295 21.2399 21.8339 20.5929 21.8339 19.9333C21.8339 19.2738 22.1295 18.6268 22.6805 18.1394ZM14.2239 21.3921C14.6481 21.0168 14.9003 20.4938 14.9003 19.9333C14.9003 19.3729 14.6481 18.8498 14.2239 18.4746C13.8017 18.1011 13.2408 17.9 12.6669 17.9C12.0931 17.9 11.5322 18.1011 11.11 18.4746C10.6858 18.8498 10.4335 19.3729 10.4335 19.9333C10.4335 20.4938 10.6858 21.0168 11.11 21.3921C11.5322 21.7656 12.0931 21.9667 12.6669 21.9667C13.2408 21.9667 13.8017 21.7656 14.2239 21.3921ZM26.3576 21.3921C26.7818 21.0168 27.034 20.4938 27.034 19.9333C27.034 19.3729 26.7818 18.8498 26.3576 18.4746C25.9354 18.1011 25.3745 17.9 24.8006 17.9C24.2268 17.9 23.6659 18.1011 23.2437 18.4746C22.8195 18.8498 22.5673 19.3729 22.5673 19.9333C22.5673 20.4938 22.8195 21.0168 23.2437 21.3921C23.6659 21.7656 24.2268 21.9667 24.8006 21.9667C25.3745 21.9667 25.9354 21.7656 26.3576 21.3921Z" stroke="#C07115"/>
</g>
<defs>
<filter id="filter0_d_66_5" x="0" y="0" width="34" height="31" filterUnits="userSpaceOnUse" color-interpolation-filters="sRGB">
<feFlood flood-opacity="0" result="BackgroundImageFix"/>
<feColorMatrix in="SourceAlpha" type="matrix" values="0 0 0 0 0 0 0 0 0 0 0 0 0 0 0 0 0 0 127 0" result="hardAlpha"/>
<feOffset dy="4"/>
<feGaussianBlur stdDeviation="2"/>
<feComposite in2="hardAlpha" operator="out"/>
<feColorMatrix type="matrix" values="0 0 0 0 0 0 0 0 0 0 0 0 0 0 0 0 0 0 0.25 0"/>
<feBlend mode="normal" in2="BackgroundImageFix" result="effect1_dropShadow_66_5"/>
<feBlend mode="normal" in="SourceGraphic" in2="effect1_dropShadow_66_5" result="shape"/>
</filter>
</defs>
</svg>
