<svg fill="#ff0000" xmlns="http://www.w3.org/2000/svg"  viewBox="0 0 32 32" width="64px" height="64px"><path d="M 15 3.8125 L 13.8125 4 C 8.171875 5.003906 4 10.113281 4 16 C 4 22.605469 9.367188 27.984375 15.96875 28 C 15.980469 28 15.988281 28 16 28 C 16.027344 28 16.867188 28.019531 17.9375 27.875 C 19.027344 27.730469 20.375 27.4375 21.5 26.6875 L 21.9375 26.40625 L 21.9375 24.625 L 20.75 24.84375 C 20.167969 24.949219 19.59375 25 19 25 C 13.464844 25 9 20.535156 9 15 C 9 11.078125 11.195313 7.574219 14.4375 5.9375 L 15 5.65625 Z M 18.9375 5 C 18.433594 5 12.375 9.433594 12.375 11.46875 C 12.375 12.027344 14.875 12.273438 14.875 13.8125 C 14.875 13.910156 14.894531 14.082031 14.875 14.1875 C 13.734375 14.460938 12 15.429688 12 16.84375 C 12 17.308594 12.113281 17.5625 12.25 17.6875 C 12.25 18.460938 13.148438 18.875 13.46875 18.875 C 13.46875 18.875 13.21875 18.605469 13.21875 18.21875 C 13.21875 17.832031 14.71875 17.21875 14.71875 17.21875 L 15.9375 17.21875 C 15.9375 17.21875 16.28125 17.21875 16.28125 18.3125 C 16.28125 19.40625 15.3125 20 15.3125 20.90625 C 15.3125 21.8125 21.1875 22.824219 22.5 22.9375 C 23.8125 23.050781 24.59375 22.9375 24.59375 22.9375 L 24.65625 22.875 C 24.65625 22.875 24.507813 22.679688 24.4375 22.625 C 24.367188 22.570313 24.085938 22.472656 23.75 22.40625 C 23.488281 22.355469 21.304688 21.878906 20.59375 21.71875 C 21.371094 21.855469 23.4375 21.96875 23.4375 21.96875 L 23.46875 21.90625 C 23.46875 21.90625 23.332031 21.664063 23.21875 21.625 C 23.105469 21.585938 22.984375 21.476563 22.75 21.4375 C 22.515625 21.398438 20.488281 20.769531 20.84375 20.875 C 21.199219 20.980469 22.640625 21.105469 22.625 21.03125 C 22.609375 20.960938 22.441406 20.777344 22.375 20.71875 C 22.3125 20.664063 21.863281 20.515625 21.71875 20.46875 C 21.574219 20.421875 20.0625 19.8125 20.0625 19.8125 C 20.0625 19.8125 20.746094 19.859375 20.78125 19.78125 C 20.757813 19.652344 20.78125 19.585938 20.65625 19.5 C 20.570313 19.441406 19.78125 19.0625 19.78125 19.0625 L 20.5 19.03125 C 20.5 19.03125 20.558594 18.929688 20.5 18.875 C 20.230469 18.636719 19.3125 18.0625 19.3125 18.0625 L 19.8125 18.125 L 19.8125 17.9375 L 19.25 17.28125 L 19.375 17.15625 C 19.375 17.15625 19.3125 16.640625 19.3125 16.5625 C 20.359375 16.351563 21.328125 15.464844 22.25 14.9375 C 22.539063 14.773438 23.28125 14.5625 23.28125 14.5625 L 23.21875 14.375 C 23.21875 14.375 26.179688 14.59375 26.25 14.59375 C 26.320313 14.59375 26.84375 14.210938 26.84375 14.15625 C 26.84375 14.101563 26.5 13.78125 26.5 13.78125 C 26.5 13.78125 27.117188 13.734375 27.15625 13.71875 C 27.195313 13.703125 27.75 13.183594 27.75 13.09375 C 27.75 13.003906 27.125 12.65625 27.125 12.65625 C 27.125 12.65625 27.492188 12.515625 27.5625 12.5 C 27.632813 12.484375 28.023438 11.679688 28 11.59375 C 27.976563 11.503906 27.558594 11.300781 27.09375 11.28125 C 26.914063 11.332031 26.5 11.46875 26.5 11.46875 C 26.5 11.46875 26.765625 10.882813 26.71875 10.75 C 26.6875 10.664063 25.984375 10.523438 25.8125 10.59375 C 25.703125 10.640625 25.324219 10.898438 25.34375 10.84375 C 25.421875 10.628906 25.40625 10.34375 25.40625 10.34375 C 25.40625 10.34375 25.230469 10.25 25.0625 10.25 C 24.894531 10.25 24.6875 10.3125 24.6875 10.3125 L 22.4375 12.125 C 22.4375 12.125 22.34375 12.035156 22.3125 12 C 22.207031 12.167969 21.574219 12.554688 21.375 12.59375 C 21.175781 12.632813 19.339844 12.589844 18.09375 12.96875 L 17.84375 12.375 L 17.625 12.375 L 17.75 11.5 C 17.75 11.5 17.722656 11.4375 17.65625 11.4375 C 17.585938 11.4375 17.28125 11.75 17.28125 11.75 L 17.8125 10.5 C 17.8125 10.5 17.808594 10.3125 17.71875 10.3125 C 17.570313 10.3125 16.96875 10.90625 16.96875 10.90625 L 17.59375 9.90625 C 17.59375 9.90625 17.660156 9.367188 17.4375 9.46875 C 17.316406 9.523438 16.8125 9.9375 16.8125 9.9375 L 18.34375 7.90625 C 18.34375 7.90625 18.484375 7.5 18.28125 7.53125 C 18.121094 7.554688 16.90625 8.6875 16.90625 8.6875 L 18.5625 6.8125 C 18.5625 6.8125 18.699219 6.351563 18.53125 6.40625 C 18.15625 6.53125 16.4375 7.9375 16.4375 7.9375 C 16.4375 7.9375 18.941406 5.503906 19 5.4375 C 19.066406 5.355469 19.101563 5 18.9375 5 Z M 8.46875 9.3125 C 7.574219 11.03125 7 12.953125 7 15 C 7 19.605469 9.710938 23.488281 13.53125 25.5 C 9.226563 24.382813 6 20.660156 6 16 C 6 13.46875 6.9375 11.113281 8.46875 9.3125 Z M 13.09375 16.625 C 13.210938 16.625 13.3125 16.726563 13.3125 16.84375 C 13.3125 16.957031 13.207031 17.03125 13.09375 17.03125 C 12.976563 17.03125 12.90625 16.960938 12.90625 16.84375 C 12.90625 16.730469 12.976563 16.625 13.09375 16.625 Z"/></svg>