<svg width="49" height="49" viewBox="0 0 49 49" fill="none" xmlns="http://www.w3.org/2000/svg">
<mask id="path-1-inside-1_996_8" fill="white">
<path d="M22 0L19.625 0.375C8.34375 2.38281 0 12.6016 0 24.375C0 37.5859 10.7344 48.3438 23.9375 48.375C23.9609 48.375 23.9766 48.375 24 48.375C24.0547 48.375 25.7344 48.4141 27.875 48.125C30.0547 47.8359 32.75 47.25 35 45.75L35.875 45.1875V41.625L33.5 42.0625C32.3359 42.2734 31.1875 42.375 30 42.375C18.9297 42.375 10 33.4453 10 22.375C10 14.5312 14.3906 7.52344 20.875 4.25L22 3.6875V0ZM29.875 2.375C28.8672 2.375 16.75 11.2422 16.75 15.3125C16.75 16.4297 21.75 16.9219 21.75 20C21.75 20.1953 21.7891 20.5391 21.75 20.75C19.4688 21.2969 16 23.2344 16 26.0625C16 26.9922 16.2266 27.5 16.5 27.75C16.5 29.2969 18.2969 30.125 18.9375 30.125C18.9375 30.125 18.4375 29.5859 18.4375 28.8125C18.4375 28.0391 21.4375 26.8125 21.4375 26.8125H23.875C23.875 26.8125 24.5625 26.8125 24.5625 29C24.5625 31.1875 22.625 32.375 22.625 34.1875C22.625 36 34.375 38.0234 37 38.25C39.625 38.4766 41.1875 38.25 41.1875 38.25L41.3125 38.125C41.3125 38.125 41.0156 37.7344 40.875 37.625C40.7344 37.5156 40.1719 37.3203 39.5 37.1875C38.9766 37.0859 34.6094 36.1328 33.1875 35.8125C34.7422 36.0859 38.875 36.3125 38.875 36.3125L38.9375 36.1875C38.9375 36.1875 38.6641 35.7031 38.4375 35.625C38.2109 35.5469 37.9688 35.3281 37.5 35.25C37.0312 35.1719 32.9766 33.9141 33.6875 34.125C34.3984 34.3359 37.2812 34.5859 37.25 34.4375C37.2188 34.2969 36.8828 33.9297 36.75 33.8125C36.625 33.7031 35.7266 33.4062 35.4375 33.3125C35.1484 33.2188 32.125 32 32.125 32C32.125 32 33.4922 32.0938 33.5625 31.9375C33.5156 31.6797 33.5625 31.5469 33.3125 31.375C33.1406 31.2578 31.5625 30.5 31.5625 30.5L33 30.4375C33 30.4375 33.1172 30.2344 33 30.125C32.4609 29.6484 30.625 28.5 30.625 28.5L31.625 28.625V28.25L30.5 26.9375L30.75 26.6875C30.75 26.6875 30.625 25.6562 30.625 25.5C32.7188 25.0781 34.6562 23.3047 36.5 22.25C37.0781 21.9219 38.5625 21.5 38.5625 21.5L38.4375 21.125C38.4375 21.125 44.3594 21.5625 44.5 21.5625C44.6406 21.5625 45.6875 20.7969 45.6875 20.6875C45.6875 20.5781 45 19.9375 45 19.9375C45 19.9375 46.2344 19.8438 46.3125 19.8125C46.3906 19.7812 47.5 18.7422 47.5 18.5625C47.5 18.3828 46.25 17.6875 46.25 17.6875C46.25 17.6875 46.9844 17.4062 47.125 17.375C47.2656 17.3438 48.0469 15.7344 48 15.5625C47.9531 15.3828 47.1172 14.9766 46.1875 14.9375C45.8281 15.0391 45 15.3125 45 15.3125C45 15.3125 45.5312 14.1406 45.4375 13.875C45.375 13.7031 43.9688 13.4219 43.625 13.5625C43.4062 13.6562 42.6484 14.1719 42.6875 14.0625C42.8438 13.6328 42.8125 13.0625 42.8125 13.0625C42.8125 13.0625 42.4609 12.875 42.125 12.875C41.7891 12.875 41.375 13 41.375 13L36.875 16.625C36.875 16.625 36.6875 16.4453 36.625 16.375C36.4141 16.7109 35.1484 17.4844 34.75 17.5625C34.3516 17.6406 30.6797 17.5547 28.1875 18.3125L27.6875 17.125H27.25L27.5 15.375C27.5 15.375 27.4453 15.25 27.3125 15.25C27.1719 15.25 26.5625 15.875 26.5625 15.875L27.625 13.375C27.625 13.375 27.6172 13 27.4375 13C27.1406 13 25.9375 14.1875 25.9375 14.1875L27.1875 12.1875C27.1875 12.1875 27.3203 11.1094 26.875 11.3125C26.6328 11.4219 25.625 12.25 25.625 12.25L28.6875 8.1875C28.6875 8.1875 28.9688 7.375 28.5625 7.4375C28.2422 7.48438 25.8125 9.75 25.8125 9.75L29.125 6C29.125 6 29.3984 5.07813 29.0625 5.1875C28.3125 5.4375 24.875 8.25 24.875 8.25C24.875 8.25 29.8828 3.38281 30 3.25C30.1328 3.08594 30.2031 2.375 29.875 2.375ZM8.9375 11C7.14844 14.4375 6 18.2812 6 22.375C6 31.5859 11.4219 39.3516 19.0625 43.375C10.4531 41.1406 4 33.6953 4 24.375C4 19.3125 5.875 14.6016 8.9375 11ZM18.1875 25.625C18.4219 25.625 18.625 25.8281 18.625 26.0625C18.625 26.2891 18.4141 26.4375 18.1875 26.4375C17.9531 26.4375 17.8125 26.2969 17.8125 26.0625C17.8125 25.8359 17.9531 25.625 18.1875 25.625Z"/>
</mask>
<path d="M22 0L19.625 0.375C8.34375 2.38281 0 12.6016 0 24.375C0 37.5859 10.7344 48.3438 23.9375 48.375C23.9609 48.375 23.9766 48.375 24 48.375C24.0547 48.375 25.7344 48.4141 27.875 48.125C30.0547 47.8359 32.75 47.25 35 45.75L35.875 45.1875V41.625L33.5 42.0625C32.3359 42.2734 31.1875 42.375 30 42.375C18.9297 42.375 10 33.4453 10 22.375C10 14.5312 14.3906 7.52344 20.875 4.25L22 3.6875V0ZM29.875 2.375C28.8672 2.375 16.75 11.2422 16.75 15.3125C16.75 16.4297 21.75 16.9219 21.75 20C21.75 20.1953 21.7891 20.5391 21.75 20.75C19.4688 21.2969 16 23.2344 16 26.0625C16 26.9922 16.2266 27.5 16.5 27.75C16.5 29.2969 18.2969 30.125 18.9375 30.125C18.9375 30.125 18.4375 29.5859 18.4375 28.8125C18.4375 28.0391 21.4375 26.8125 21.4375 26.8125H23.875C23.875 26.8125 24.5625 26.8125 24.5625 29C24.5625 31.1875 22.625 32.375 22.625 34.1875C22.625 36 34.375 38.0234 37 38.25C39.625 38.4766 41.1875 38.25 41.1875 38.25L41.3125 38.125C41.3125 38.125 41.0156 37.7344 40.875 37.625C40.7344 37.5156 40.1719 37.3203 39.5 37.1875C38.9766 37.0859 34.6094 36.1328 33.1875 35.8125C34.7422 36.0859 38.875 36.3125 38.875 36.3125L38.9375 36.1875C38.9375 36.1875 38.6641 35.7031 38.4375 35.625C38.2109 35.5469 37.9688 35.3281 37.5 35.25C37.0312 35.1719 32.9766 33.9141 33.6875 34.125C34.3984 34.3359 37.2812 34.5859 37.25 34.4375C37.2188 34.2969 36.8828 33.9297 36.75 33.8125C36.625 33.7031 35.7266 33.4062 35.4375 33.3125C35.1484 33.2188 32.125 32 32.125 32C32.125 32 33.4922 32.0938 33.5625 31.9375C33.5156 31.6797 33.5625 31.5469 33.3125 31.375C33.1406 31.2578 31.5625 30.5 31.5625 30.5L33 30.4375C33 30.4375 33.1172 30.2344 33 30.125C32.4609 29.6484 30.625 28.5 30.625 28.5L31.625 28.625V28.25L30.5 26.9375L30.75 26.6875C30.75 26.6875 30.625 25.6562 30.625 25.5C32.7188 25.0781 34.6562 23.3047 36.5 22.25C37.0781 21.9219 38.5625 21.5 38.5625 21.5L38.4375 21.125C38.4375 21.125 44.3594 21.5625 44.5 21.5625C44.6406 21.5625 45.6875 20.7969 45.6875 20.6875C45.6875 20.5781 45 19.9375 45 19.9375C45 19.9375 46.2344 19.8438 46.3125 19.8125C46.3906 19.7812 47.5 18.7422 47.5 18.5625C47.5 18.3828 46.25 17.6875 46.25 17.6875C46.25 17.6875 46.9844 17.4062 47.125 17.375C47.2656 17.3438 48.0469 15.7344 48 15.5625C47.9531 15.3828 47.1172 14.9766 46.1875 14.9375C45.8281 15.0391 45 15.3125 45 15.3125C45 15.3125 45.5312 14.1406 45.4375 13.875C45.375 13.7031 43.9688 13.4219 43.625 13.5625C43.4062 13.6562 42.6484 14.1719 42.6875 14.0625C42.8438 13.6328 42.8125 13.0625 42.8125 13.0625C42.8125 13.0625 42.4609 12.875 42.125 12.875C41.7891 12.875 41.375 13 41.375 13L36.875 16.625C36.875 16.625 36.6875 16.4453 36.625 16.375C36.4141 16.7109 35.1484 17.4844 34.75 17.5625C34.3516 17.6406 30.6797 17.5547 28.1875 18.3125L27.6875 17.125H27.25L27.5 15.375C27.5 15.375 27.4453 15.25 27.3125 15.25C27.1719 15.25 26.5625 15.875 26.5625 15.875L27.625 13.375C27.625 13.375 27.6172 13 27.4375 13C27.1406 13 25.9375 14.1875 25.9375 14.1875L27.1875 12.1875C27.1875 12.1875 27.3203 11.1094 26.875 11.3125C26.6328 11.4219 25.625 12.25 25.625 12.25L28.6875 8.1875C28.6875 8.1875 28.9688 7.375 28.5625 7.4375C28.2422 7.48438 25.8125 9.75 25.8125 9.75L29.125 6C29.125 6 29.3984 5.07813 29.0625 5.1875C28.3125 5.4375 24.875 8.25 24.875 8.25C24.875 8.25 29.8828 3.38281 30 3.25C30.1328 3.08594 30.2031 2.375 29.875 2.375ZM8.9375 11C7.14844 14.4375 6 18.2812 6 22.375C6 31.5859 11.4219 39.3516 19.0625 43.375C10.4531 41.1406 4 33.6953 4 24.375C4 19.3125 5.875 14.6016 8.9375 11ZM18.1875 25.625C18.4219 25.625 18.625 25.8281 18.625 26.0625C18.625 26.2891 18.4141 26.4375 18.1875 26.4375C17.9531 26.4375 17.8125 26.2969 17.8125 26.0625C17.8125 25.8359 17.9531 25.625 18.1875 25.625Z" fill="#7B6857" stroke="#EAF2D8" stroke-width="2" mask="url(#path-1-inside-1_996_8)"/>
</svg>
