<svg width="46" height="46" viewBox="0 0 37 46" fill="none" xmlns="http://www.w3.org/2000/svg">
<path d="M37 24.1016V19C37 18.1016 36.3984 17.3008 35.6016 17.1016L31 15.6992C25.6992 14.1016 20.6992 12.6992 15.3984 11H15.3008C14.5 10.8008 13.6992 11.6992 14.1016 12.5C16 16.3984 18 22 18 22L24.6992 24.6016C24.3984 24.6016 3 36 3 36L12 28V5C12 4.10156 11.3984 3.19922 10.6016 3C10.6016 3 5.69922 1.10156 2.60156 0.101563C2.39844 -2.23517e-08 2.19922 0 2 0C1.60156 0 1.19922 0.101563 0.800781 0.398438C0.300781 0.800781 0 1.39844 0 2V36.6992C0 37.3984 0.300781 38 0.898438 38.3008C3 39.8008 5.19922 41.3008 7.30078 42.8008L10.3008 44.8984C10.6016 45.1016 11 45.3008 11.3984 45.3008C11.8008 45.3008 12.1016 45.1992 12.3984 45C16.6992 42.3984 21.1016 39.8008 25.3984 37.1992L36 30.8984C36.6016 30.5 37 29.8984 37 29.1992V24.1016Z" fill="#FF0303" fill-opacity="0.69"/>
</svg>
