<svg width="64" height="52" viewBox="0 0 64 52" fill="none" xmlns="http://www.w3.org/2000/svg">
<path d="M0 25.22C0 10.7283 13.972 0 32 0C50.028 0 64 10.7283 64 25.22C64 39.7118 50.028 50.44 32 50.44C28.76 50.44 25.656 50.0923 22.736 49.4422C22.1698 49.3142 21.5666 49.3487 21.028 49.5397L14.676 51.8213C14.2924 51.9587 13.873 52.0176 13.4549 51.9926C13.0367 51.9676 12.6325 51.8595 12.2778 51.6778C11.9231 51.4962 11.6287 51.2465 11.4205 50.9508C11.2124 50.655 11.0968 50.3223 11.084 49.9818L10.908 45.357C10.8958 45.0755 10.8133 44.799 10.6655 44.5442C10.5176 44.2894 10.3076 44.0617 10.048 43.875C3.824 39.351 0 32.799 0 25.22ZM22.184 20.4783L12.784 32.5942C11.884 33.7578 13.64 35.0675 14.988 34.2388L25.088 28.0118C25.4202 27.8067 25.8255 27.6952 26.2427 27.6941C26.6598 27.6929 27.0661 27.8021 27.4 28.0052L34.876 32.5617C35.4064 32.8849 36.0135 33.1153 36.659 33.2384C37.3045 33.3615 37.9744 33.3746 38.6264 33.2769C39.2784 33.1792 39.8984 32.9728 40.4474 32.6707C40.9964 32.3686 41.4624 31.9774 41.816 31.5218L51.216 19.4058C52.12 18.2423 50.36 16.9325 49.012 17.7612L38.912 23.9883C38.5798 24.1933 38.1745 24.3048 37.7573 24.3059C37.3402 24.3071 36.9339 24.1979 36.6 23.9947L29.124 19.435C28.5936 19.1118 27.9865 18.8814 27.341 18.7583C26.6955 18.6352 26.0256 18.6221 25.3736 18.7198C24.7216 18.8175 24.1016 19.0239 23.5526 19.326C23.0036 19.6281 22.5376 20.0193 22.184 20.475V20.4783Z" fill="#3971FF"/>
</svg>
