<svg width="24" height="24" viewBox="0 0 24 24" fill="none" xmlns="http://www.w3.org/2000/svg">
<g clip-path="url(#clip0_125_2)">
<path d="M24 6.75002C24.0011 7.76725 23.7718 8.77153 23.3294 9.68752C22.887 10.6035 22.2429 11.4074 21.4455 12.039L19.5 7.50002L23.9385 5.83502C23.979 6.13502 24 6.43952 24 6.75002Z" fill="#ED6C24"/>
<path d="M17.25 13.5C18.2295 13.5 19.1595 13.2915 19.9995 12.915L18 8.24999L16.5 4.49999L22.239 2.20499C21.1814 1.04373 19.7519 0.28764 18.1968 0.0669652C16.6417 -0.15371 15.0583 0.174843 13.7194 0.99603C12.3805 1.81722 11.3699 3.07963 10.8616 4.5658C10.3534 6.05198 10.3793 7.66888 10.935 9.13799L1.76099 16.782C1.34755 17.1267 1.01048 17.5538 0.77127 18.036C0.532059 18.5182 0.395953 19.045 0.371633 19.5827C0.347312 20.1205 0.43531 20.6574 0.630015 21.1592C0.82472 21.6611 1.12186 22.1169 1.50249 22.4975C1.88312 22.8781 2.33889 23.1753 2.84073 23.37C3.34258 23.5647 3.87949 23.6527 4.41723 23.6283C4.95497 23.604 5.48175 23.4679 5.96397 23.2287C6.44619 22.9895 6.87327 22.6524 7.21799 22.239L14.862 13.065C15.6251 13.3534 16.4342 13.5008 17.25 13.5ZM15.312 6.95849L14.418 8.29799L15.6315 7.89299C15.7059 7.86788 15.7862 7.86674 15.8613 7.88973C15.9363 7.91272 16.0023 7.95869 16.0498 8.02114C16.0974 8.0836 16.1241 8.15939 16.1263 8.23786C16.1285 8.31632 16.106 8.39349 16.062 8.45849L15.168 9.79799L16.3815 9.39299L16.6185 10.1055L14.3685 10.8555C14.2943 10.8802 14.2143 10.8812 14.1396 10.8582C14.0649 10.8352 13.9992 10.7894 13.9518 10.7273C13.9043 10.6651 13.8775 10.5897 13.875 10.5116C13.8726 10.4335 13.8946 10.3565 13.938 10.2915L14.832 8.95199L13.6185 9.35699C13.5441 9.3821 13.4637 9.38324 13.3887 9.36024C13.3136 9.33725 13.2477 9.29129 13.2002 9.22884C13.1526 9.16638 13.1259 9.09058 13.1237 9.01212C13.1215 8.93366 13.144 8.85649 13.188 8.79149L14.082 7.45199L12.8685 7.85699L12.6315 7.14449L14.8815 6.39449C14.9556 6.36975 15.0357 6.36881 15.1104 6.3918C15.1851 6.41479 15.2508 6.46055 15.2982 6.5227C15.3457 6.58484 15.3725 6.66025 15.375 6.73839C15.3774 6.81652 15.3554 6.89348 15.312 6.95849ZM4.49999 21C4.10216 21 3.72063 20.842 3.43933 20.5606C3.15802 20.2793 2.99999 19.8978 2.99999 19.5C2.99999 19.1022 3.15802 18.7206 3.43933 18.4393C3.72063 18.158 4.10216 18 4.49999 18C4.89781 18 5.27934 18.158 5.56065 18.4393C5.84195 18.7206 5.99999 19.1022 5.99999 19.5C5.99999 19.8978 5.84195 20.2793 5.56065 20.5606C5.27934 20.842 4.89781 21 4.49999 21Z" fill="#ED6C24"/>
</g>
<defs>
<clipPath id="clip0_125_2">
<rect width="24" height="24" fill="white"/>
</clipPath>
</defs>
</svg>
