<svg width="64" height="52" viewBox="0 0 64 52" fill="none" xmlns="http://www.w3.org/2000/svg">
<path d="M44.0003 8.12488C44 6.2188 44.8247 4.37333 46.3302 2.91135C47.8356 1.44936 49.9258 0.463962 52.2352 0.127548C54.5446 -0.208865 56.9261 0.125131 58.963 1.0711C60.9999 2.01708 62.5625 3.51478 63.3774 5.30219C64.1924 7.0896 64.2077 9.05289 63.4208 10.8486C62.6339 12.6442 61.0948 14.1579 59.0729 15.1249C57.0509 16.0918 54.6749 16.4503 52.3604 16.1378C50.046 15.8252 47.9404 14.8615 46.4123 13.4151L19.5407 23.5537C20.1585 25.1442 20.1585 26.8506 19.5407 28.441L46.4123 38.5796C48.0276 37.0534 50.2829 36.0687 52.741 35.8164C55.199 35.564 57.6849 36.062 59.7168 37.2138C61.7487 38.3656 63.1819 40.0892 63.7387 42.0505C64.2954 44.0119 63.9361 46.0713 62.7304 47.8297C61.5246 49.5881 59.5583 50.9202 57.2124 51.5679C54.8666 52.2156 52.3083 52.1328 50.0333 51.3354C47.7584 50.5381 45.9288 49.083 44.8992 47.2522C43.8695 45.4215 43.7131 43.3453 44.4603 41.4262L17.5888 31.2876C16.2585 32.5471 14.4854 33.4453 12.508 33.8615C10.5305 34.2778 8.44358 34.1921 6.5279 33.6159C4.61223 33.0397 2.95971 32.0007 1.79266 30.6387C0.625606 29.2766 0 27.6569 0 25.9974C0 24.3378 0.625606 22.7181 1.79266 21.3561C2.95971 19.9941 4.61223 18.9551 6.5279 18.3789C8.44358 17.8027 10.5305 17.717 12.508 18.1332C14.4854 18.5494 16.2585 19.4477 17.5888 20.7071L44.4603 10.5685C44.1544 9.77782 43.9993 8.95373 44.0003 8.12488Z" fill="white"/>
</svg>
