<svg width="64" height="52" viewBox="0 0 64 52" fill="none" xmlns="http://www.w3.org/2000/svg">
<path d="M20.1038 51.5H20.104C43.9227 51.5 56.968 31.7738 56.968 14.666C56.968 14.1042 56.9679 13.547 56.9445 12.9995L56.9329 12.7308L57.1508 12.5731C59.2148 11.079 61.0476 9.29415 62.5936 7.2764C60.6288 7.9966 58.5853 8.48775 56.5039 8.73874L56.1875 7.81315C58.4412 6.4661 60.2123 4.46018 61.2726 2.08203C58.9808 3.28275 56.524 4.14429 53.9791 4.63742L53.7083 4.68989L53.5195 4.48882C51.6155 2.46121 49.096 1.11797 46.3513 0.667183C43.6066 0.216392 40.7898 0.683205 38.3372 1.99531C35.8847 3.30742 33.9332 5.39158 32.7852 7.92498C31.6372 10.4584 31.3566 13.2996 31.987 16.0086L32.1373 16.6545L31.475 16.6213C26.1839 16.356 21.0078 14.9816 16.2822 12.5871C11.778 10.3049 7.77903 7.14452 4.51945 3.29488C3.18651 5.93478 2.81692 8.96659 3.48961 11.862C4.21716 14.9936 6.10934 17.7309 8.78194 19.5181L10.2398 20.493L8.48702 20.4334C6.6107 20.3697 4.7702 19.9237 3.07721 19.1261C3.21736 21.8103 4.20964 24.3866 5.91852 26.4758C7.76386 28.7319 10.3316 30.2817 13.1878 30.8632L13.2208 31.8351C12.0503 32.1576 10.8413 32.3184 9.62727 32.3131M20.1038 51.5L1.12817 46.2501C1.79079 46.2997 2.45525 46.3231 3.12 46.3203L3.11919 46.8203C3.11967 46.8203 3.12016 46.8203 3.12065 46.8203C9.15001 46.8298 15.0071 44.8099 19.7488 41.0858L20.8543 40.2176L19.4489 40.1927C16.8137 40.1459 14.2592 39.2762 12.143 37.7052C10.2486 36.2988 8.79051 34.3936 7.92663 32.2098C8.49046 32.2802 9.05849 32.3147 9.62727 32.3131M20.1038 51.5C13.7826 51.5019 7.57926 49.8792 2.08359 46.8038L20.1038 51.5ZM9.62727 32.3131C9.62802 32.3131 9.62877 32.3131 9.62952 32.3131L9.628 31.8131L9.62577 32.3131C9.62627 32.3131 9.62677 32.3131 9.62727 32.3131Z" fill="#199AE2" stroke="#3B98BF"/>
</svg>
